<svg width="800" height="650" viewBox="0 0 800 650" xmlns="http://www.w3.org/2000/svg">
  <defs>
    <linearGradient id="bgGrad2" x1="0%" y1="0%" x2="0%" y2="100%"><stop offset="0%" style="stop-color:#fef08a;stop-opacity:1" /><stop offset="100%" style="stop-color:#a3e635;stop-opacity:1" /></linearGradient>
    <filter id="whiteHalo"><feMorphology operator="dilate" radius="2"/><feFlood flood-color="white" opacity="0.9"/><feComposite operator="in" in2="SourceAlpha"/><feMerge><feMergeNode/><feMergeNode in="SourceGraphic"/></feMerge></filter>
  </defs>
  <rect width="800" height="650" fill="url(#bgGrad2)" />
  <ellipse cx="420" cy="450" rx="150" ry="100" fill="#38bdf8" opacity="0.8" />
  
  <path d="M 250 350 L 450 300 L 650 400 L 500 550 L 200 500 Z" stroke="#64748b" stroke-width="12" fill="none" stroke-linecap="round" stroke-linejoin="round" />
  <path d="M 450 300 L 450 150" stroke="#64748b" stroke-width="10" fill="none" stroke-linecap="round" />
  <path d="M 650 400 L 750 400" stroke="#64748b" stroke-width="10" fill="none" stroke-linecap="round" />
  <path d="M 500 550 L 500 650" stroke="#64748b" stroke-width="10" fill="none" stroke-linecap="round" />
  <path d="M 200 500 L 50 500" stroke="#64748b" stroke-width="10" fill="none" stroke-linecap="round" />

  <text x="750" y="390" font-family="Arial" font-size="16" font-weight="bold" fill="#334155" text-anchor="middle">Kikötő</text>
  <text x="515" y="630" font-family="Arial" font-size="16" font-weight="bold" fill="#334155">Kemping</text>

  <circle cx="250" cy="350" r="10" fill="#1e293b" stroke="white" stroke-width="3" />
  <text x="230" y="335" font-family="Arial" font-size="20" font-weight="bold" fill="#0f172a" filter="url(#whiteHalo)">Tóváros</text>

  <circle cx="450" cy="300" r="10" fill="#1e293b" stroke="white" stroke-width="3" />
  <text x="450" y="280" font-family="Arial" font-size="20" font-weight="bold" fill="#0f172a" text-anchor="middle" filter="url(#whiteHalo)">Halászlak</text>

  <circle cx="650" cy="400" r="10" fill="#1e293b" stroke="white" stroke-width="3" />
  <text x="670" y="420" font-family="Arial" font-size="20" font-weight="bold" fill="#0f172a" filter="url(#whiteHalo)">Révfülöp</text>

  <circle cx="500" cy="550" r="10" fill="#1e293b" stroke="white" stroke-width="3" />
  <text x="500" y="580" font-family="Arial" font-size="20" font-weight="bold" fill="#0f172a" text-anchor="middle" filter="url(#whiteHalo)">Partos</text>

  <circle cx="200" cy="500" r="10" fill="#1e293b" stroke="white" stroke-width="3" />
  <text x="180" y="530" font-family="Arial" font-size="20" font-weight="bold" fill="#0f172a" filter="url(#whiteHalo)">Hegyalja</text>

  <g transform="translate(100, 20)">
    <rect width="600" height="130" rx="10" fill="#334155" stroke="white" stroke-width="4" />
    <path d="M 200 65 L 170 65 L 170 55 L 150 75 L 170 95 L 170 85 L 200 85 Z" fill="white" />
    <text x="220" y="85" fill="white" font-family="Arial" font-size="28" font-weight="bold">Révfülöp</text>
    <text x="420" y="85" fill="white" font-family="Arial" font-size="28" font-weight="bold" text-anchor="end">Tóváros</text>
    <path d="M 440 65 L 470 65 L 470 55 L 490 75 L 470 95 L 470 85 L 440 85 Z" fill="white" />
  </g>

  <g transform="translate(450, 225)">
    <g transform="rotate(90)">
      <path d="M -15 -10 L 15 -10 L 15 -16 L 30 0 L 15 16 L 15 10 L -15 10 Z" fill="#f97316" stroke="white" stroke-width="2" />
    </g>
    <text x="0" y="32" font-family="Arial" font-size="24" font-weight="bold" fill="#1e293b" text-anchor="middle" filter="url(#whiteHalo)">A</text>
  </g>
  <g transform="translate(350, 325)">
    <g transform="rotate(166)">
      <path d="M -15 -10 L 15 -10 L 15 -16 L 30 0 L 15 16 L 15 10 L -15 10 Z" fill="#f97316" stroke="white" stroke-width="2" />
    </g>
    <text x="0" y="32" font-family="Arial" font-size="24" font-weight="bold" fill="#1e293b" text-anchor="middle" filter="url(#whiteHalo)">B</text>
  </g>
  <g transform="translate(550, 350)">
    <g transform="rotate(-154)">
      <path d="M -15 -10 L 15 -10 L 15 -16 L 30 0 L 15 16 L 15 10 L -15 10 Z" fill="#f97316" stroke="white" stroke-width="2" />
    </g>
    <text x="0" y="32" font-family="Arial" font-size="24" font-weight="bold" fill="#1e293b" text-anchor="middle" filter="url(#whiteHalo)">C</text>
  </g>
  <g transform="translate(225, 425)">
    <g transform="rotate(109)">
      <path d="M -15 -10 L 15 -10 L 15 -16 L 30 0 L 15 16 L 15 10 L -15 10 Z" fill="#f97316" stroke="white" stroke-width="2" />
    </g>
    <text x="0" y="32" font-family="Arial" font-size="24" font-weight="bold" fill="#1e293b" text-anchor="middle" filter="url(#whiteHalo)">D</text>
  </g>
</svg>
