<svg width="800" height="650" viewBox="0 0 800 650" xmlns="http://www.w3.org/2000/svg">
  <defs>
    <linearGradient id="bgGrad" x1="0%" y1="0%" x2="0%" y2="100%"><stop offset="0%" style="stop-color:#dcfce7;stop-opacity:1" /><stop offset="100%" style="stop-color:#86efac;stop-opacity:1" /></linearGradient>
    <filter id="whiteHalo"><feMorphology operator="dilate" radius="2"/><feFlood flood-color="white" opacity="0.9"/><feComposite operator="in" in2="SourceAlpha"/><feMerge><feMergeNode/><feMergeNode in="SourceGraphic"/></feMerge></filter>
    <symbol id="tree" viewBox="0 0 24 24"><circle cx="12" cy="8" r="7" fill="#15803d"/><circle cx="8" cy="14" r="6" fill="#166534"/><circle cx="16" cy="14" r="6" fill="#166534"/><rect x="10" y="16" width="4" height="6" fill="#92400e"/></symbol>
  </defs>
  <rect width="800" height="650" fill="url(#bgGrad)" />
  <path d="M 0 100 Q 300 200 400 400 T 800 600" stroke="#38bdf8" stroke-width="40" fill="none" opacity="0.7" />
  
  <path d="M 200 450 L 350 400 L 500 300 L 650 200" stroke="#64748b" stroke-width="12" fill="none" stroke-linecap="round" stroke-linejoin="round" />
  <path d="M 350 400 L 450 500" stroke="#64748b" stroke-width="12" fill="none" stroke-linecap="round" stroke-linejoin="round" />
  <path d="M 500 300 L 450 500" stroke="#64748b" stroke-width="12" fill="none" stroke-linecap="round" stroke-linejoin="round" />
  
  <use href="#tree" x="150" y="380" width="40" height="40" />
  <use href="#tree" x="170" y="400" width="30" height="30" />
  <use href="#tree" x="600" y="250" width="50" height="50" />
  <use href="#tree" x="650" y="280" width="40" height="40" />
  <use href="#tree" x="480" y="420" width="40" height="40" />

  <circle cx="200" cy="450" r="10" fill="#1e293b" stroke="white" stroke-width="3" />
  <text x="180" y="430" font-family="Arial" font-size="20" font-weight="bold" fill="#0f172a" filter="url(#whiteHalo)">Cserkút</text>
  <circle cx="350" cy="400" r="12" fill="#1e293b" stroke="white" stroke-width="3" />
  <text x="350" y="375" font-family="Arial" font-size="20" font-weight="bold" fill="#0f172a" text-anchor="middle" filter="url(#whiteHalo)">Kékvölgy</text>
  <circle cx="500" cy="300" r="12" fill="#1e293b" stroke="white" stroke-width="3" />
  <text x="500" y="275" font-family="Arial" font-size="20" font-weight="bold" fill="#0f172a" text-anchor="middle" filter="url(#whiteHalo)">Szelespuszta</text>
  <circle cx="650" cy="200" r="10" fill="#1e293b" stroke="white" stroke-width="3" />
  <text x="670" y="200" font-family="Arial" font-size="20" font-weight="bold" fill="#0f172a" filter="url(#whiteHalo)">Nagyhegy</text>
  <circle cx="450" cy="500" r="10" fill="#1e293b" stroke="white" stroke-width="3" />
  <text x="450" y="530" font-family="Arial" font-size="20" font-weight="bold" fill="#0f172a" text-anchor="middle" filter="url(#whiteHalo)">Kispatak</text>

  <g transform="translate(100, 20)">
    <rect width="600" height="130" rx="10" fill="#334155" stroke="white" stroke-width="4" />
    <path d="M 300 65 L 300 45 L 290 45 L 310 25 L 330 45 L 320 45 L 320 65 Z" fill="white" />
    <text x="350" y="55" fill="white" font-family="Arial" font-size="28" font-weight="bold">Szelespuszta</text>
    <text x="540" y="105" fill="white" font-family="Arial" font-size="28" font-weight="bold" text-anchor="end">Kispatak</text>
    <path d="M 560 85 L 590 85 L 590 75 L 610 95 L 590 115 L 590 105 L 560 105 Z" fill="white" />
  </g>

  <g transform="translate(275, 425)">
    <g transform="rotate(-18)">
      <path d="M -15 -10 L 15 -10 L 15 -16 L 30 0 L 15 16 L 15 10 L -15 10 Z" fill="#f97316" stroke="white" stroke-width="2" />
    </g>
    <text x="0" y="32" font-family="Arial" font-size="24" font-weight="bold" fill="#1e293b" text-anchor="middle" filter="url(#whiteHalo)">A</text>
  </g>
  <g transform="translate(425, 350)">
    <g transform="rotate(-34)">
      <path d="M -15 -10 L 15 -10 L 15 -16 L 30 0 L 15 16 L 15 10 L -15 10 Z" fill="#f97316" stroke="white" stroke-width="2" />
    </g>
    <text x="0" y="32" font-family="Arial" font-size="24" font-weight="bold" fill="#1e293b" text-anchor="middle" filter="url(#whiteHalo)">B</text>
  </g>
  <g transform="translate(475, 400)">
    <g transform="rotate(104)">
      <path d="M -15 -10 L 15 -10 L 15 -16 L 30 0 L 15 16 L 15 10 L -15 10 Z" fill="#f97316" stroke="white" stroke-width="2" />
    </g>
    <text x="0" y="32" font-family="Arial" font-size="24" font-weight="bold" fill="#1e293b" text-anchor="middle" filter="url(#whiteHalo)">C</text>
  </g>
  <g transform="translate(400, 450)">
    <g transform="rotate(-135)">
      <path d="M -15 -10 L 15 -10 L 15 -16 L 30 0 L 15 16 L 15 10 L -15 10 Z" fill="#f97316" stroke="white" stroke-width="2" />
    </g>
    <text x="0" y="32" font-family="Arial" font-size="24" font-weight="bold" fill="#1e293b" text-anchor="middle" filter="url(#whiteHalo)">D</text>
  </g>
</svg>
