<?xml version="1.0" encoding="UTF-8"?>
<svg width="900" height="600" viewBox="0 0 900 600" xmlns="http://www.w3.org/2000/svg">
    <rect width="900" height="600" fill="#ffffff" />
    <g transform="translate(60, 60)">
        
    <text x="0" y="30" font-family="Arial" font-size="36" font-weight="bold">Iskolai könyvtár (%)</text>
    <text x="0" y="110" font-size="32" font-weight="bold">Regény: 50%</text>
    <text x="0" y="170" font-size="32" font-weight="bold">Tudomány: 25%</text>
    <text x="0" y="230" font-size="32" font-weight="bold">Művészet: 25%</text>
    
    <g transform="translate(500, 250)">
        <circle cx="0" cy="0" r="200" fill="#ecf0f1" stroke="#333" stroke-width="5" />
        <path d="M0,0 L0,-200 A200,200 0 0,1 200,0 Z" fill="#3498db" />
        <path d="M0,0 L200,0 A200,200 0 0,1 0,200 Z" fill="#e67e22" />
        <path d="M0,0 L0,200 A200,200 0 0,1 -200,0 A200,200 0 0,1 0,-200 Z" fill="#2ecc71" />
        <text x="-100" y="15" font-size="36" fill="#fff" font-weight="bold" text-anchor="middle">50%</text>
        <text x="60" y="-60" font-size="28" fill="#fff" font-weight="bold" text-anchor="middle">25%</text>
        <text x="60" y="90" font-size="28" fill="#fff" font-weight="bold" text-anchor="middle">25%</text>
    </g>

    </g>
</svg>