<?xml version="1.0" encoding="UTF-8"?>
<svg width="900" height="600" viewBox="0 0 900 600" xmlns="http://www.w3.org/2000/svg">
    <rect width="900" height="600" fill="#ffffff" />
    <g transform="translate(60, 60)">
        
    <text x="0" y="30" font-family="Arial" font-size="36" font-weight="bold">Kedvenc sportok</text>
    <text x="0" y="110" font-size="32" font-weight="bold">Foci: 12 fő</text>
    <text x="0" y="170" font-size="32" font-weight="bold">Úszás: 4 fő</text>
    <text x="0" y="230" font-size="32" font-weight="bold">Tenisz: 4 fő</text>
    
    <g transform="translate(450, 80)">
        <circle cx="35" cy="35" r="25" fill="#333" /> <circle cx="95" cy="35" r="25" fill="#333" /> <circle cx="155" cy="35" r="25" fill="#333" /> <circle cx="215" cy="35" r="25" fill="#333" />
        <circle cx="35" cy="95" r="25" fill="#333" /> <circle cx="95" cy="95" r="25" fill="#333" /> <circle cx="155" cy="95" r="25" fill="#333" /> <circle cx="215" cy="95" r="25" fill="#333" />
        <circle cx="35" cy="155" r="25" fill="#333" /> <circle cx="95" cy="155" r="25" fill="#333" /> <circle cx="155" cy="155" r="25" fill="#333" /> <circle cx="215" cy="155" r="25" fill="#333" />
        
        <rect x="10" y="210" width="50" height="50" fill="#3498db" /> <rect x="70" y="210" width="50" height="50" fill="#3498db" /> <rect x="130" y="210" width="50" height="50" fill="#3498db" /> <rect x="190" y="210" width="50" height="50" fill="#3498db" />
        
        <rect x="10" y="280" width="50" height="50" fill="#2ecc71" /> <rect x="70" y="280" width="50" height="50" fill="#2ecc71" /> <rect x="130" y="280" width="50" height="50" fill="#2ecc71" /> <rect x="190" y="280" width="50" height="50" fill="#2ecc71" />
    </g>

    </g>
</svg>