<?xml version="1.0" encoding="UTF-8"?>
<svg width="600" height="400" viewBox="0 0 600 400" xmlns="http://www.w3.org/2000/svg">
    <rect width="600" height="400" fill="#ffffff" />
    <g transform="translate(50, 50)">
        
    <line x1="50" y1="150" x2="150" y2="150" stroke="#333" marker-end="url(#arrow)" />
    <line x1="150" y1="150" x2="250" y2="100" stroke="#333" marker-end="url(#arrow)" />
    <line x1="150" y1="150" x2="250" y2="200" stroke="#333" marker-end="url(#arrow)" />
    <line x1="250" y1="100" x2="350" y2="150" stroke="#333" marker-end="url(#arrow)" />
    <line x1="250" y1="200" x2="350" y2="150" stroke="#333" marker-end="url(#arrow)" />
    
    
    <rect x="10" y="130" width="80" height="40" rx="5" fill="#2ecc71" stroke="#333" stroke-width="2" />
    <text x="50" y="155" font-family="Arial" font-size="12" text-anchor="middle" fill="#fff" font-weight="bold">START</text>
    
    <rect x="110" y="130" width="80" height="40" rx="5" fill="#f1c40f" stroke="#333" stroke-width="2" />
    <text x="150" y="155" font-family="Arial" font-size="12" text-anchor="middle" fill="#fff" font-weight="bold">TERV</text>
    
    <rect x="210" y="80" width="80" height="40" rx="5" fill="#3498db" stroke="#333" stroke-width="2" />
    <text x="250" y="105" font-family="Arial" font-size="12" text-anchor="middle" fill="#fff" font-weight="bold">A modul</text>
    
    <rect x="210" y="180" width="80" height="40" rx="5" fill="#3498db" stroke="#333" stroke-width="2" />
    <text x="250" y="205" font-family="Arial" font-size="12" text-anchor="middle" fill="#fff" font-weight="bold">B modul</text>
    
    <rect x="310" y="130" width="80" height="40" rx="5" fill="#e74c3c" stroke="#333" stroke-width="2" />
    <text x="350" y="155" font-family="Arial" font-size="12" text-anchor="middle" fill="#fff" font-weight="bold">TESZT</text>

    </g>
</svg>