<?xml version="1.0" encoding="UTF-8"?>
<svg width="600" height="400" viewBox="0 0 600 400" xmlns="http://www.w3.org/2000/svg">
    <rect width="600" height="400" fill="#ffffff" />
    <g transform="translate(50, 50)">
        
    <g transform="translate(100, 100)">
        <polygon points="0,-40 35,-20 35,20 0,40 -35,20 -35,-20" fill="#ecf0f1" stroke="#333" />
        <polygon points="70,0 105,20 105,60 70,80 35,60 35,20" fill="#ecf0f1" stroke="#333" transform="translate(0,40)" />
        <text x="70" y="45" text-anchor="middle">?</text>
    </g>
    <g transform="translate(300, 50)">
        <polygon points="0,-30 26,-15 26,15 0,30 -26,15 -26,-15" fill="#3498db" /> <text x="40" y="5">1.</text>
        <rect x="-20" y="60" width="40" height="40" fill="#e74c3c" /> <text x="40" y="85">2.</text>
        <circle cx="0" cy="140" r="25" fill="#2ecc71" /> <text x="40" y="145">3.</text>
    </g>

    </g>
</svg>