<?xml version="1.0" encoding="UTF-8"?>
<svg width="600" height="400" viewBox="0 0 600 400" xmlns="http://www.w3.org/2000/svg">
    <rect width="600" height="400" fill="#ffffff" />
    <g transform="translate(50, 50)">
        
    <path d="M50,50 L150,50 L150,100 L100,100 L100,150 L50,150 Z" fill="#e67e22" />
    <text x="250" y="100">Melyik az árnyéka?</text>
    <g transform="translate(0, 200)">
        <path d="M0,0 L100,0 L100,50 L50,50 L50,100 L0,100 Z" fill="#333" /> <text x="40" y="130">A</text>
        <path d="M150,0 L200,0 L200,100 L150,100 L150,50 L100,50 Z" fill="#333" transform="translate(50,0)" /> <text x="190" y="130">B</text>
        <path d="M300,0 L350,0 L350,100 L400,100 L400,50 L300,50 Z" fill="#333" transform="translate(50,0)" /> <text x="340" y="130">C</text>
    </g>

    </g>
</svg>